# xmcd
#
# Track frame offsets:
#	150
#	32282
#	49670
#	68876
#	134332
#	136714
#	157487
#	173555
#	200529
#
# Disc length: 3197 seconds
#
# Revision: 1
# Processed by: cddbd v1.5.1PL2 Copyright (c) Steve Scherf et al.
# Submitted via: CDmax 2.0
#
DISCID=780c7b09
DTITLE=Los Lonely Boys - June 20th, 2004 - Wakarusa - Sun Down Stage - Lawren
DTITLE=ce, KS
DYEAR=2004
DGENRE=Blues
TTITLE0=Crazy Dream
TTITLE1=Dime Mi Amor
TTITLE2=I Am The Man To Beat
TTITLE3=Onda
TTITLE4=Band Intros
TTITLE5=Senorita - pt1
TTITLE6=Senorita - pt2
TTITLE7=Heaven
TTITLE8=End Of A New Beginning
EXTD=Los Lonely Boys\nJune 20th, 2004\nWakarusa - Sun Down Stage\nLawrence, K
EXTD=S\n\nSource: MBHO 603a/KA200 > V3 > M1 (FOB-DFC]\nLineage: Conner CTD800
EXTD=0 > DAT2WAV > Samplitude > CDWave > FLAC16\nTaped by: Eric Foelske\nTran
EXTD=sferred by: Eric Foelske\n\nUploaded by: Wookie \n\nCrazy Dream\nDime M
EXTD=i Amor\nI Am the Man to Beat\nOnda\nSenorita - pt1\nSenorita - pt2\nHeav
EXTD=en\nEnd of a New Beginning
EXTT0=
EXTT1=
EXTT2=
EXTT3=
EXTT4=
EXTT5=
EXTT6=
EXTT7=
EXTT8=
PLAYORDER=
